<svg xmlns="http://www.w3.org/2000/svg" viewBox="0 0 2387.99 1468.77"><defs><style>.cls-1,.cls-2{fill-rule:evenodd;}.cls-2{fill:#fff;}</style></defs><g id="Layer_2" data-name="Layer 2"><g id="Layer_1-2" data-name="Layer 1"><path class="cls-1" d="M1727.92,1057.62c-74.6,119.21-86.35,187.05-241.19,269.9s-315.18,66.69-461.38,45.77c-69.83-10-117.94-23.73-154-39.42l-.63.69c-2.18,2.22-7.69,3.26-11.39,1.44a19.93,19.93,0,0,1-4.38-2.74c-.17-.18-.09-.15-.29-.35-2.17-2.05-2.49-5-1.88-7.77-52.54-26.82-77.09-57.89-116.38-84.83-66.87-45.92-118.29-122.59-154.93-211.37a18.4,18.4,0,0,1-3.93,1.21c-3,.49-8.11-1.93-10-5.6a18.45,18.45,0,0,1-1.89-4.85c0-.18,0-.13-.09-.38-.73-4.37,2.9-8,6.6-9.57l1.48-.65c-52.7-138.41-70.84-302-56.54-423.8,3.8-32.21,13.88-65.66,28.26-99.08a17,17,0,0,1-4.91-1.65c-3-1.48-5.83-6.76-5.14-11.15a19.88,19.88,0,0,1,1.4-5.41c.09-.2.09-.13.22-.38,2.11-4.23,7.56-5.09,11.77-4.1,2.38.56,3.55.4,5.81,2.49l0,0c35.16-73.12,89.07-145,140.74-202.24-1.84-8.17.78-20.46,7.78-27.36,3.61-3.5,6.79-6.64,11.23-9.1a4.71,4.71,0,0,1,1-.52,19.77,19.77,0,0,1,14.6-1.28l.2-.07a6,6,0,0,1,2.18-.72l5.07-5c135.37-133.83,475.73-191,701.3-71.6,98.38,52.09,184.8,99.11,266.58,176,9.51,9,6.57,6.73,17.47,17.78a413.33,413.33,0,0,1,65.57,86.22,13.79,13.79,0,0,1,5.83-2.53c3.05-.54,8.18,1.77,10.11,5.41a18,18,0,0,1,2,4.79,2.64,2.64,0,0,0,.07.41c.85,4.33-2.69,8-6.35,9.66l-1.72.85c95.79,189.38,39.26,435.65-70.31,610.89Zm142.47-776.31c-7.24-8.46-20-15.12-30.93-9.51-.6.32-.49.25-1,.52-4.44,2.49-7.62,5.6-11.23,9.13-8.21,8.09-10.41,23.54-6.44,31.19,2.58,5.06,7.4,12.08,12.76,14.51,8.61,3.83,23.68,5.31,31.21-.59,3-2.26,5.75-2.53,9.65-10.63,2.91-6.07,5.83-12.74,4.28-20.54s-4.19-9.22-8.34-14.08Zm-243,1012.42c-7.25-8.46-20-15.12-31-9.51-.59.32-.5.25-1,.52-4.42,2.48-7.6,5.6-11.19,9.14-8.21,8.08-10.42,23.53-6.48,31.18,2.62,5,7.42,12.11,12.8,14.51,8.6,3.83,23.66,5.29,31.18-.59,3-2.26,5.78-2.53,9.66-10.65,2.89-6,5.79-12.72,4.33-20.52s-4.22-9.22-8.36-14.08Zm-985-132c-7.27-8.46-20-15.12-30.94-9.49a7.37,7.37,0,0,0-1,.52c-4.46,2.46-7.61,5.6-11.22,9.12-8.22,8.1-10.38,23.55-6.45,31.22,2.58,5,7.42,12.07,12.76,14.47,8.61,3.87,23.66,5.29,31.23-.55,3-2.3,5.77-2.57,9.63-10.65,2.91-6.05,5.83-12.76,4.32-20.52s-4.19-9.23-8.34-14.12Zm-41-839.3c-7.28-8.48-20-15.12-30.94-9.49a9.67,9.67,0,0,0-1,.49c-4.42,2.49-7.6,5.59-11.21,9.13-8.21,8.09-10.4,23.53-6.44,31.19,2.58,5.05,7.4,12.09,12.76,14.51,8.61,3.82,23.68,5.3,31.2-.6,2.95-2.25,5.76-2.54,9.66-10.63,2.91-6.06,5.79-12.74,4.31-20.54s-4.22-9.22-8.33-14.06ZM1891.71,826.76c-7.24-8.48-20-15.13-30.94-9.5-.63.33-.5.24-1,.53-4.42,2.45-7.6,5.59-11.19,9.09-8.25,8.13-10.42,23.58-6.48,31.25,2.58,5,7.42,12.07,12.76,14.45,8.64,3.87,23.7,5.31,31.22-.54,3-2.27,5.78-2.56,9.68-10.65,2.87-6,5.79-12.72,4.28-20.52s-4.19-9.24-8.34-14.11Zm31.19-132.88c-1.61.73-2.19,1.36-4.39,1.16a8.82,8.82,0,0,1-5.07-2.73,5.76,5.76,0,0,1-2.06-3.41c-1-2.38.54-6.28,2.22-8.26,1.05-1.25,3.27-2,4.82-2.3,2.31-.43,6.28,1.3,7.78,4.12a13.44,13.44,0,0,1,1.55,3.66,1.32,1.32,0,0,0,0,.33c.65,3.34-2.09,6.15-4.9,7.43Zm-60.72-134.24c4-1.81,7.78-5.8,6.86-10.45a2.49,2.49,0,0,0-.06-.42,20.65,20.65,0,0,0-2.16-5.14c-2.13-3.9-7.6-6.39-10.87-5.76-2.16.42-5.27,1.46-6.71,3.18-2.35,2.74-4.55,8.17-3.18,11.62.53,1.3.31,2.38,2.89,4.71,1.93,1.73,4.1,3.5,7.13,3.79s3.9-.56,6.1-1.53Zm-57.27,576c3,.65,6.91,0,8.36-3.12.09-.18.09-.13.16-.29a15.86,15.86,0,0,0,.92-3.86c.42-3.14-1.71-6.88-3.84-7.93-1.43-.65-3.67-1.37-5.24-1-2.54.58-6,2.81-6.71,5.32a5.91,5.91,0,0,0-.35,4,8.81,8.81,0,0,0,2.51,5.2c1.65,1.48,2.49,1.32,4.19,1.68Zm30.45-144.17c4.22.88,9.65-.07,11.69-4.35a1.35,1.35,0,0,1,.2-.4,22.3,22.3,0,0,0,1.3-5.43c.6-4.39-2.38-9.62-5.36-11-2-1-5.11-2-7.31-1.44-3.54.85-8.5,3.93-9.42,7.52-.36,1.34-1.15,2.06-.47,5.51.53,2.51,1.25,5.23,3.5,7.25s3.49,1.84,5.87,2.37Zm-697,436.63c-.23-2.42-.79-3.46.49-6.26s3.63-4.28,5.88-5.56c3-1.66,4-1.14,5.4-1.21,3.7-.2,8.12,3.63,10,6.75,1.17,1.93,1.14,5.2.85,7.36-.47,3.31-4.59,7.69-9,8.45a19.41,19.41,0,0,1-5.54.38l-.42,0c-4.71-.64-7.27-5.55-7.69-9.86Zm68.64,33.52c-.16-1.77-.59-2.53.33-4.51a9.14,9.14,0,0,1,4.22-4,5.66,5.66,0,0,1,3.9-.84c2.58-.13,5.76,2.56,7.11,4.78.81,1.41.81,3.77.61,5.31-.32,2.34-3.26,5.5-6.42,6a12.27,12.27,0,0,1-4,.29c-.17,0-.1,0-.33-.07-3.34-.45-5.14-3.92-5.47-7ZM738.09,1263.88c-2.22,3.7-3.05,9.17.36,12.47.2.2.16.13.33.31a20.36,20.36,0,0,0,4.71,3c4,2,9.85.85,12.18-1.51,1.54-1.61,3.5-4.22,3.7-6.44.33-3.63-1-9.34-4.1-11.36-1.17-.76-1.6-1.77-5.07-2.24-2.54-.28-5.34-.48-8,1s-2.85,2.65-4.1,4.78ZM469.49,840c2.94-1.28,4.06-2.38,8.05-1.9s6.79,2.87,9.24,5.2c3.31,3.11,3,4.51,3.67,6.26,1.66,4.52-1.32,11.59-4.5,15.11-1.95,2.24-6,3.48-8.86,3.94-4.31.75-11.42-2.66-14.08-7.8a28.25,28.25,0,0,1-2.69-6.81,4.59,4.59,0,0,1-.09-.57c-1-6.14,4.06-11.25,9.26-13.43Zm25.43-322.22c1.72.39,2.53.23,4.14,1.76a8.83,8.83,0,0,1,2.38,5.24,5.77,5.77,0,0,1-.38,4c-.72,2.51-4.33,4.64-6.88,5.2-1.57.32-3.77-.45-5.18-1.14-2.13-1-4.18-4.86-3.66-8a14.75,14.75,0,0,1,1-3.86,1.4,1.4,0,0,1,.16-.25c1.52-3.05,5.42-3.65,8.41-2.92ZM996.15,41.57c-3.66-4.26-10.09-7.63-15.61-4.78A1.35,1.35,0,0,0,980,37a25.84,25.84,0,0,0-5.65,4.58c-4.17,4.1-5.27,11.92-3.28,15.78,1.32,2.56,3.74,6.1,6.46,7.31,4.35,1.93,12,2.69,15.74-.29,1.5-1.16,2.91-1.28,4.87-5.38,1.48-3,2.94-6.41,2.2-10.34s-2.13-4.68-4.22-7.13ZM757.51,149.23c-2-2.36-5.5-4.19-8.52-2.65a2.52,2.52,0,0,0-.29.16,14.07,14.07,0,0,0-3.08,2.49c-2.29,2.26-2.87,6.52-1.81,8.61.72,1.37,2.08,3.34,3.54,4,2.36,1.08,6.52,1.48,8.61-.16a5.76,5.76,0,0,0,2.65-2.91c.8-1.68,1.61-3.54,1.18-5.67s-1.14-2.52-2.28-3.86Zm644.5-118c-.23-3.08-2-6.66-5.31-7.18-.19,0-.16,0-.32,0a12.63,12.63,0,0,0-4,.18c-3.18.43-6.16,3.54-6.53,5.9-.24,1.54-.31,3.9.48,5.27,1.3,2.3,4.42,5.07,7,5a5.59,5.59,0,0,0,3.9-.79,9,9,0,0,0,4.28-3.86c1-2,.56-2.75.43-4.48ZM1187.2,7.3c.12,1.73.48,2.5-.44,4.47a8.76,8.76,0,0,1-4.31,3.86,5.87,5.87,0,0,1-3.9.8c-2.58.05-5.72-2.73-7-5-.81-1.37-.72-3.78-.49-5.31.36-2.33,3.36-5.43,6.52-5.87a14.78,14.78,0,0,1,4-.21l.28.05c3.38.53,5.11,4.06,5.35,7.19Zm464.48,208c2.29-3.66,3.25-9.09-.09-12.47a2.48,2.48,0,0,0-.31-.29,19.61,19.61,0,0,0-4.64-3.08c-3.93-2.1-9.85-1.07-12.23,1.24-1.56,1.55-3.58,4.13-3.85,6.35-.41,3.65.8,9.37,3.85,11.43,1.17.83,1.58,1.84,5,2.33,2.55.36,5.33.65,8-.8s2.93-2.63,4.23-4.71Zm-114.94-60c2.13-3.4,3-8.47-.09-11.61a3,3,0,0,0-.3-.31,17.5,17.5,0,0,0-4.32-2.85c-3.62-1.93-9.2-1-11.39,1.16-1.44,1.44-3.33,3.86-3.57,6-.4,3.38.72,8.69,3.57,10.65,1.09.74,1.47,1.66,4.68,2.15,2.38.33,5,.6,7.49-.74s2.72-2.45,3.93-4.4Zm80.86-8.38c1.64-2.62,2.37-6.51,0-8.93a2,2,0,0,0-.22-.2,13.82,13.82,0,0,0-3.34-2.18c-2.8-1.52-7-.8-8.72.88-1.12,1.06-2.58,2.94-2.74,4.55-.33,2.58.56,6.68,2.71,8.14a5.6,5.6,0,0,0,3.61,1.68,9.17,9.17,0,0,0,5.75-.56C1616.56,149.23,1616.68,148.42,1617.6,146.9Z"/><path class="cls-2" d="M1311.3,994.59q17.27,0,43.6-25.39,22.45-22.4,34.08-48.84h-22.4q-49.85,0-66.18,22.34t-9.73,38.68q4.51,11.19,20.63,13.21Zm-386.22,220.2q133.27,0,126.84-354-127,30.5-228.13,94.61-79.38,60-42.62,150.58,22.29,49.85,64.26,79.35t79.65,29.51ZM11.13,610.54a7.18,7.18,0,0,1-7.93-12C138.14,508.63,315.73,546.88,488,584c169.24,36.42,434.52,81.6,543.17-9.28a4.67,4.67,0,0,1,.89-.61c1.67-1.54,4.78-2.26,9.29-2.26a43.28,43.28,0,0,1,17.42,4.06q9.29,4.07,12.18,11.19,15.62,121,20.23,245.19c75.52-25.21,101.51-79.74,111.69-133.34q2.38-151.12,41.38-280.15,31.34-95.59,75.66-136.83T1408,240.75q71.2,0,112.45,86.46,20.63,50.87,7.25,125.63t-80,137.37q-66.62,62.56-202.43,83.93-2.76,83.45-.2,137.33,13.21-37.61,40.23-60t54.51-22.4q28.48,0,54.15,19.35t39.27,52.9q19.44,47.77,8.73,101.7,51.22-14.24,100.54-68.15c112.66-123.18,209-141,360.46-108.42,169.41,36.46,344,74.06,473.91-12.51a7.18,7.18,0,1,1,7.92,12c-134.9,89.88-312.53,51.69-484.8,14.6-149.21-32.14-239.2-12.25-350.19,108.58q-50.43,55-110.15,68.19-6.24,17.27-23.37,37.65-43.2,53.89-91,53.87-34.56,0-46.16-28.48-5-12.18.23-29.49t23.93-30q18.76-12.74,53.32-12.71l5.5,1,32.15-1q11.44-24.39,9.73-54.92t-10.38-51.89q-9.48-23.42-26.39-38.66t-37.22-15.25q-28.47,0-56.11,39.67-26.67,34.57-26.44,70.19c-.23,6.08-4.75,9.15-13.59,9.15-13.55,0-22.4-5.11-26.51-15.25q-3.93-17.19-4.37-109.11c-17.06,44.91-49.56,83.64-111,104.43q4.9,137.34-16.26,233Q1042.39,1228,940.63,1228q-50.86,0-98.38-33.07t-73.1-91a142.27,142.27,0,0,1-7.92-83.44q8.55-42.72,53.33-75.27,77.84-54,206.79-89.55l29.87-9.14q-5.52-136.36-16.48-231c-1.1-7.85-2.06-15.61-2.85-23.21-118.4,86.53-378.28,42-546.84,5.67-169.4-36.48-344-74-473.92,12.53Zm1036.6-100.79c6.1,0,10.51-2,13.31-6.1s2.87-9.15.38-15.29a35.9,35.9,0,0,0-13-15.73c-6.21-4.43-12.36-6.61-18.46-6.61s-10.47,2.18-13.09,6.61-2.69,9.65-.2,15.73a33.27,33.27,0,0,0,12.8,15.29q9.09,6.09,18.26,6.1Zm198.65,152.19q129.87-23.41,193.17-85.48t75.88-133.76q12.61-71.74-6-117.51-12.81-31.54-35-49.85T1425.8,257q-36.63,0-75.75,42.73t-67.79,142.42q-24.66,94.62-30.45,145.49Z"/></g></g></svg>